<?xml version="1.0" encoding="utf-8"?>
<!-- Generator: Adobe Illustrator 16.0.0, SVG Export Plug-In . SVG Version: 6.00 Build 0)  -->
<!DOCTYPE svg PUBLIC "-//W3C//DTD SVG 1.1//EN" "http://www.w3.org/Graphics/SVG/1.1/DTD/svg11.dtd">
<svg version="1.1" id="Calque_1" xmlns="http://www.w3.org/2000/svg" xmlns:xlink="http://www.w3.org/1999/xlink" x="0px" y="0px"
	 width="1092.553px" height="671.128px" viewBox="0 0 1092.553 671.128" enable-background="new 0 0 1092.553 671.128"
	 xml:space="preserve">
<g>
	
		<image overflow="visible" opacity="0.75" width="1125" height="704" xlink:href="406D3ECD0BED480.png"  transform="matrix(1 0 0 1 -7.1182 -8.7148)">
	</image>
	<g>
		<g>
			<g id="Intérieur_11_">
				<linearGradient id="SVGID_1_" gradientUnits="userSpaceOnUse" x1="122.6514" y1="335.564" x2="863.5264" y2="335.564">
					<stop  offset="0" style="stop-color:#009933"/>
					<stop  offset="0.1448" style="stop-color:#029933"/>
					<stop  offset="0.205" style="stop-color:#099B31"/>
					<stop  offset="0.2494" style="stop-color:#159D2F"/>
					<stop  offset="0.2861" style="stop-color:#27A12B"/>
					<stop  offset="0.3181" style="stop-color:#3EA527"/>
					<stop  offset="0.3467" style="stop-color:#5AAB21"/>
					<stop  offset="0.3729" style="stop-color:#7CB21A"/>
					<stop  offset="0.3972" style="stop-color:#A3BA12"/>
					<stop  offset="0.419" style="stop-color:#CEC20A"/>
					<stop  offset="0.4394" style="stop-color:#FECC00"/>
					<stop  offset="0.44" style="stop-color:#FFCC00"/>
					<stop  offset="0.7178" style="stop-color:#FFCC00"/>
					<stop  offset="0.7867" style="stop-color:#F2970D"/>
					<stop  offset="0.9343" style="stop-color:#D72B28"/>
					<stop  offset="1" style="stop-color:#CC0033"/>
				</linearGradient>
				<path fill-rule="evenodd" clip-rule="evenodd" fill="url(#SVGID_1_)" d="M125.979,493.01
					c-1.831-4.663-3.328-10.915-3.328-13.893s1.869-10.828,4.152-10.828s9.804-8.087,11.631-17.971s23.53-18.991,27.574-14.504
					s18.729,11.8,20.143,9.705s9.31-7.132,15.369-5.607s27.39,0.932,30.328-1.16s17.265-1.543,17.811-1.459
					s16.316-1.512,27.316-1.512h128.949c11,0,21.457-4.869,23.238-10.82s0.765-27.279-1.113-29.168s-10.061-13.635-11.294-24.565
					L379.652,22.379C378.444,11.446,386.456,2.5,397.456,2.5h41.703c11,0,27.457,5.04,36.57,11.199l178.603,119.983
					c9.19,6.044,17.555,11.992,18.587,13.216s10.11,10.332,19.686,15.745l19.365,10.442c8.715,6.712,14.77,13.791,13.453,15.73
					s5.107,18.511,11.81,27.233c0,0,19.588-13.747,26.985-7.771s14.453,12.93,15.68,15.453s10.142,9.931,16.793,11.123
					s22.664,11.773,22.832,18.887s1.206,19.576,9.828,19.592s34.176,8.971,34.176,19.971v58.84c0,11-0.83,20-1.846,20
					s-4.054,6.96-4.494,15.467s-4.214,31.015-5.268,33.213s-6.853,7.469-9.105,8.246s-7.039,5.778-7.109,7.947
					s-11.637,5.339-22.634,5.096l-62.505,3.705c-10.991,0.441-28.625,3.319-39.187,6.396l-27.674,7.892
					c-10.776-2.209-22.175-4.237-25.331-4.508s-26.729,1.622-37.643,3.003l-26.526,28.364c-10.295,3.876-24.585,8.015-31.757,9.197
					s-19.798,12.66-19.312,15.867s-3.673,6.635-5.383,5.326s-10.739,1.547-10.746,3.838s-1.359,13.588-3.035,15.422
					s-11.107,2.103-14.861-1.178s-21.7-4.938-24.41-3.369c-2.71,1.569-5.19,11.847-4.016,14.918s-0.456,12.98-3.479,12.51
					s-7.853,7.09-8.928,13.049s-10.441,18.672-15.447,19.986s-17.749,11.392-16.711,19.957s-10.048,24.643-9.867,29.109
					s-4.081,19.619-8.668,22.084s-20.514,5.658-21.93,4.805s-4.104-7.016-3.797-10.857s-3.565-12.069-5.551-10.535
					s-6.352,5.734-6.678,4.564s-6.239,1.812-7.818,4.734s-11.977,6.158-11.504,8.607s-5.871,2.086-10.307-1.523
					s-25.614-1.867-26.156,1.078s-8.52,4.625-9.988,3.574s-3.946-7.41-6.953-7.201s-6.739-7.349-6.428-12.557
					s-4.012-16.362-6.523-14.848s-9.153,1.021-7.301-2.631s7.723-12.057,6.047-13.395s-10.21-3.487-11.184-5.766
					s-5.152-9.337-5.152-12.562s0.258-12.674,0.574-13.834s-8.879-4.525-8.879-6.018s-2.567-6.957-5.705-8.836
					s-10.427,1.655-9.834,2.812s-1.47,6.446-5.33,8.631s-17.196,6.704-21.4,4.857s-18.555-3.633-21.803-0.604
					s-14.359,6.181-15.432,2.262s-11.185-5.784-12.002-3.357s-9.506,4.025-12.787,2.766s-8.149-15.823-6.789-26.391
					s-10.358-31.353-11.527-30.264s-9.172-1.564-11.129-4.365s-3.524-13.14-2.025-13.91S127.81,497.673,125.979,493.01z"/>
				<path fill="none" stroke="#FFFFFF" stroke-width="5" stroke-miterlimit="10" d="M125.979,493.01
					c-1.831-4.663-3.328-10.915-3.328-13.893s1.869-10.828,4.152-10.828s9.804-8.087,11.631-17.971s23.53-18.991,27.574-14.504
					s18.729,11.8,20.143,9.705s9.31-7.132,15.369-5.607s27.39,0.932,30.328-1.16s17.265-1.543,17.811-1.459
					s16.316-1.512,27.316-1.512h128.949c11,0,21.457-4.869,23.238-10.82s0.765-27.279-1.113-29.168s-10.061-13.635-11.294-24.565
					L379.652,22.379C378.444,11.446,386.456,2.5,397.456,2.5h41.703c11,0,27.457,5.04,36.57,11.199l178.603,119.983
					c9.19,6.044,17.555,11.992,18.587,13.216s10.11,10.332,19.686,15.745l19.365,10.442c8.715,6.712,14.77,13.791,13.453,15.73
					s5.107,18.511,11.81,27.233c0,0,19.588-13.747,26.985-7.771s14.453,12.93,15.68,15.453s10.142,9.931,16.793,11.123
					s22.664,11.773,22.832,18.887s1.206,19.576,9.828,19.592s34.176,8.971,34.176,19.971v58.84c0,11-0.83,20-1.846,20
					s-4.054,6.96-4.494,15.467s-4.214,31.015-5.268,33.213s-6.853,7.469-9.105,8.246s-7.039,5.778-7.109,7.947
					s-11.637,5.339-22.634,5.096l-62.505,3.705c-10.991,0.441-28.625,3.319-39.187,6.396l-27.674,7.892
					c-10.776-2.209-22.175-4.237-25.331-4.508s-26.729,1.622-37.643,3.003l-26.526,28.364c-10.295,3.876-24.585,8.015-31.757,9.197
					s-19.798,12.66-19.312,15.867s-3.673,6.635-5.383,5.326s-10.739,1.547-10.746,3.838s-1.359,13.588-3.035,15.422
					s-11.107,2.103-14.861-1.178s-21.7-4.938-24.41-3.369c-2.71,1.569-5.19,11.847-4.016,14.918s-0.456,12.98-3.479,12.51
					s-7.853,7.09-8.928,13.049s-10.441,18.672-15.447,19.986s-17.749,11.392-16.711,19.957s-10.048,24.643-9.867,29.109
					s-4.081,19.619-8.668,22.084s-20.514,5.658-21.93,4.805s-4.104-7.016-3.797-10.857s-3.565-12.069-5.551-10.535
					s-6.352,5.734-6.678,4.564s-6.239,1.812-7.818,4.734s-11.977,6.158-11.504,8.607s-5.871,2.086-10.307-1.523
					s-25.614-1.867-26.156,1.078s-8.52,4.625-9.988,3.574s-3.946-7.41-6.953-7.201s-6.739-7.349-6.428-12.557
					s-4.012-16.362-6.523-14.848s-9.153,1.021-7.301-2.631s7.723-12.057,6.047-13.395s-10.21-3.487-11.184-5.766
					s-5.152-9.337-5.152-12.562s0.258-12.674,0.574-13.834s-8.879-4.525-8.879-6.018s-2.567-6.957-5.705-8.836
					s-10.427,1.655-9.834,2.812s-1.47,6.446-5.33,8.631s-17.196,6.704-21.4,4.857s-18.555-3.633-21.803-0.604
					s-14.359,6.181-15.432,2.262s-11.185-5.784-12.002-3.357s-9.506,4.025-12.787,2.766s-8.149-15.823-6.789-26.391
					s-10.358-31.353-11.527-30.264s-9.172-1.564-11.129-4.365s-3.524-13.14-2.025-13.91S127.81,497.673,125.979,493.01z"/>
			</g>
			<g>
				<path d="M89.456,202.531c2.345-4.975,6.536-5.161,9.312-0.413l39.888,68.219c2.776,4.748,7.348,4.765,10.159,0.037
					l40.613-68.293c2.811-4.728,7.025-4.522,9.364,0.456l84.363,179.562c2.339,4.978-0.248,9.051-5.748,9.051h-47.876
					c-5.5,0-11.979-4.041-14.399-8.98l-25.282-51.618c-2.419-4.939-6.644-5.08-9.387-0.313l-30.067,52.245
					c-2.744,4.767-7.394,4.864-10.335,0.216l-33.327-52.677c-2.941-4.648-7.313-4.403-9.717,0.543l-25.623,52.728
					c-2.404,4.946-8.871,8.994-14.371,8.994H10c-5.5,0-8.081-4.07-5.736-9.045L89.456,202.531z"/>
				<path fill="none" stroke="#FFFFFF" stroke-width="5" stroke-miterlimit="10" d="M89.456,202.531
					c2.345-4.975,6.536-5.161,9.312-0.413l39.888,68.219c2.776,4.748,7.348,4.765,10.159,0.037l40.613-68.293
					c2.811-4.728,7.025-4.522,9.364,0.456l84.363,179.562c2.339,4.978-0.248,9.051-5.748,9.051h-47.876
					c-5.5,0-11.979-4.041-14.399-8.98l-25.282-51.618c-2.419-4.939-6.644-5.08-9.387-0.313l-30.067,52.245
					c-2.744,4.767-7.394,4.864-10.335,0.216l-33.327-52.677c-2.941-4.648-7.313-4.403-9.717,0.543l-25.623,52.728
					c-2.404,4.946-8.871,8.994-14.371,8.994H10c-5.5,0-8.081-4.07-5.736-9.045L89.456,202.531z"/>
			</g>
			<g>
				<path d="M402.864,202.326c2.57-4.862,6.758-4.853,9.307,0.021l94.677,181.077c2.549,4.873,0.134,8.861-5.366,8.861h-47.024
					c-5.5,0-12.121-3.969-14.713-8.819l-28.062-52.509c-2.592-4.851-6.834-4.851-9.427,0l-28.061,52.509
					c-2.592,4.851-9.213,8.819-14.713,8.819h-47.024c-5.5,0-7.897-3.979-5.327-8.841L402.864,202.326z"/>
				<path fill="none" stroke="#FFFFFF" stroke-width="5" stroke-miterlimit="10" d="M402.864,202.326
					c2.57-4.862,6.758-4.853,9.307,0.021l94.677,181.077c2.549,4.873,0.134,8.861-5.366,8.861h-47.024
					c-5.5,0-12.121-3.969-14.713-8.819l-28.062-52.509c-2.592-4.851-6.834-4.851-9.427,0l-28.061,52.509
					c-2.592,4.851-9.213,8.819-14.713,8.819h-47.024c-5.5,0-7.897-3.979-5.327-8.841L402.864,202.326z"/>
			</g>
			<g>
				<path d="M581.282,193.251c5.5-0.027,10,4.45,10,9.95v122.852c0,5.5,4.5,10,10,10h52.136c5.5,0,10,4.5,10,10v36.232
					c0,5.5-4.5,9.99-10,9.978l-109.22-0.239c-5.5-0.013-10-4.522-10-10.022V203.485c0-5.5,4.5-10.022,10-10.05L581.282,193.251z"/>
				<path fill="none" stroke="#FFFFFF" stroke-width="5" stroke-miterlimit="10" d="M581.282,193.251c5.5-0.027,10,4.45,10,9.95
					v122.852c0,5.5,4.5,10,10,10h52.136c5.5,0,10,4.5,10,10v36.232c0,5.5-4.5,9.99-10,9.978l-109.22-0.239
					c-5.5-0.013-10-4.522-10-10.022V203.485c0-5.5,4.5-10.022,10-10.05L581.282,193.251z"/>
			</g>
			<g>
				<path d="M689.26,203.485c0-5.5,4.5-10,10-10h44.467c5.5,0,10,4.5,10,10v178.8c0,5.5-4.5,10-10,10H699.26c-5.5,0-10-4.5-10-10
					V203.485z"/>
				<path fill="none" stroke="#FFFFFF" stroke-width="5" stroke-miterlimit="10" d="M689.26,203.485c0-5.5,4.5-10,10-10h44.467
					c5.5,0,10,4.5,10,10v178.8c0,5.5-4.5,10-10,10H699.26c-5.5,0-10-4.5-10-10V203.485z"/>
			</g>
			<g>
				<path d="M450.435,481.522c0-5.5,4.5-10,10-10h44.467c5.5,0,10,4.5,10,10v178.801c0,5.5-4.5,10-10,10h-44.467
					c-5.5,0-10-4.5-10-10V481.522z"/>
				<path fill="none" stroke="#FFFFFF" stroke-width="5" stroke-miterlimit="10" d="M450.435,481.522c0-5.5,4.5-10,10-10h44.467
					c5.5,0,10,4.5,10,10v178.801c0,5.5-4.5,10-10,10h-44.467c-5.5,0-10-4.5-10-10V481.522z"/>
			</g>
			<g>
				<path d="M543.046,481.522c-0.016-5.5,3.396-7.081,7.583-3.515l80.769,68.822c4.187,3.566,7.611,1.985,7.611-3.515v-61.793
					c0-5.5,4.5-10.042,10-10.093l41.061-0.383c5.5-0.051,9.993,4.407,9.985,9.907L699.8,660.038c-0.008,5.5-3.559,7.228-7.891,3.838
					l-74.276-58.107c-4.332-3.39-7.821-1.662-7.756,3.837l0.612,50.719c0.065,5.499-4.38,9.999-9.88,9.999h-47.023
					c-5.5,0-10.013-4.5-10.028-10L543.046,481.522z"/>
				<path fill="none" stroke="#FFFFFF" stroke-width="5" stroke-miterlimit="10" d="M543.046,481.522
					c-0.016-5.5,3.396-7.081,7.583-3.515l80.769,68.822c4.187,3.566,7.611,1.985,7.611-3.515v-61.793c0-5.5,4.5-10.042,10-10.093
					l41.061-0.383c5.5-0.051,9.993,4.407,9.985,9.907L699.8,660.038c-0.008,5.5-3.559,7.228-7.891,3.838l-74.276-58.107
					c-4.332-3.39-7.821-1.662-7.756,3.837l0.612,50.719c0.065,5.499-4.38,9.999-9.88,9.999h-47.023c-5.5,0-10.013-4.5-10.028-10
					L543.046,481.522z"/>
			</g>
			<g>
				<path d="M799.812,528.606c-5.5,0-10,3.131-10,6.958s4.5,6.958,10,6.958h51.568c5.5,0,10,4.5,10,10v36.801c0,5.5-4.5,10-10,10
					h-51.568c-5.5,0-10.019,4.5-10.04,10l-0.205,51c-0.021,5.5-4.54,9.978-10.04,9.95l-36.8-0.186c-5.5-0.027-10-4.55-10-10.05
					V481.522c0-5.5,4.5-9.99,10-9.978l108.653,0.239c5.5,0.013,10,4.522,10,10.022v36.8c0,5.5-4.5,10-10,10H799.812z"/>
				<path fill="none" stroke="#FFFFFF" stroke-width="5" stroke-miterlimit="10" d="M799.812,528.606c-5.5,0-10,3.131-10,6.958
					s4.5,6.958,10,6.958h51.568c5.5,0,10,4.5,10,10v36.801c0,5.5-4.5,10-10,10h-51.568c-5.5,0-10.019,4.5-10.04,10l-0.205,51
					c-0.021,5.5-4.54,9.978-10.04,9.95l-36.8-0.186c-5.5-0.027-10-4.55-10-10.05V481.522c0-5.5,4.5-9.99,10-9.978l108.653,0.239
					c5.5,0.013,10,4.522,10,10.022v36.8c0,5.5-4.5,10-10,10H799.812z"/>
			</g>
			<g>
				<path d="M884.666,570.354c0-13.632,2.742-26.456,8.236-38.482c5.488-12.021,12.922-22.479,22.293-31.381
					c9.373-8.897,20.352-15.949,32.943-21.158c12.59-5.205,25.986-7.811,40.188-7.811c14.387,0,27.924,2.605,40.611,7.811
					c12.682,5.209,23.715,12.261,33.086,21.158c9.373,8.901,16.801,19.36,22.295,31.381c5.488,12.026,8.234,24.851,8.234,38.482
					c0,13.633-2.746,26.51-8.234,38.624c-5.494,12.119-12.922,22.627-22.295,31.524c-9.371,8.901-20.404,15.953-33.086,21.158
					c-12.688,5.209-26.225,7.81-40.611,7.81c-14.201,0-27.598-2.601-40.188-7.81c-12.592-5.205-23.57-12.257-32.943-21.158
					c-9.371-8.897-16.805-19.405-22.293-31.524C887.408,596.864,884.666,583.987,884.666,570.354z M945.441,570.354
					c0,6.062,1.137,11.742,3.408,17.04c2.271,5.304,5.396,9.94,9.371,13.916c3.977,3.976,8.613,7.101,13.916,9.372
					c5.299,2.271,10.979,3.408,17.041,3.408c6.057,0,11.596-1.137,16.613-3.408c5.016-2.271,9.324-5.396,12.922-9.372
					c3.596-3.976,6.391-8.612,8.379-13.916c1.988-5.298,2.982-10.978,2.982-17.04c0-6.057-0.994-11.736-2.982-17.039
					c-1.988-5.299-4.783-9.941-8.379-13.916c-3.598-3.977-7.906-7.101-12.922-9.373c-5.018-2.271-10.557-3.408-16.613-3.408
					c-6.062,0-11.742,1.137-17.041,3.408c-5.303,2.272-9.939,5.396-13.916,9.373c-3.975,3.975-7.1,8.617-9.371,13.916
					C946.578,558.618,945.441,564.298,945.441,570.354z"/>
				<path fill="none" stroke="#FFFFFF" stroke-width="5" stroke-miterlimit="10" d="M884.666,570.354
					c0-13.632,2.742-26.456,8.236-38.482c5.488-12.021,12.922-22.479,22.293-31.381c9.373-8.897,20.352-15.949,32.943-21.158
					c12.59-5.205,25.986-7.811,40.188-7.811c14.387,0,27.924,2.605,40.611,7.811c12.682,5.209,23.715,12.261,33.086,21.158
					c9.373,8.901,16.801,19.36,22.295,31.381c5.488,12.026,8.234,24.851,8.234,38.482c0,13.633-2.746,26.51-8.234,38.624
					c-5.494,12.119-12.922,22.627-22.295,31.524c-9.371,8.901-20.404,15.953-33.086,21.158c-12.688,5.209-26.225,7.81-40.611,7.81
					c-14.201,0-27.598-2.601-40.188-7.81c-12.592-5.205-23.57-12.257-32.943-21.158c-9.371-8.897-16.805-19.405-22.293-31.524
					C887.408,596.864,884.666,583.987,884.666,570.354z M945.441,570.354c0,6.062,1.137,11.742,3.408,17.04
					c2.271,5.304,5.396,9.94,9.371,13.916c3.977,3.976,8.613,7.101,13.916,9.372c5.299,2.271,10.979,3.408,17.041,3.408
					c6.057,0,11.596-1.137,16.613-3.408c5.016-2.271,9.324-5.396,12.922-9.372c3.596-3.976,6.391-8.612,8.379-13.916
					c1.988-5.298,2.982-10.978,2.982-17.04c0-6.057-0.994-11.736-2.982-17.039c-1.988-5.299-4.783-9.941-8.379-13.916
					c-3.598-3.977-7.906-7.101-12.922-9.373c-5.018-2.271-10.557-3.408-16.613-3.408c-6.062,0-11.742,1.137-17.041,3.408
					c-5.303,2.272-9.939,5.396-13.916,9.373c-3.975,3.975-7.1,8.617-9.371,13.916C946.578,558.618,945.441,564.298,945.441,570.354z
					"/>
			</g>
		</g>
	</g>
</g>
</svg>
