<?xml version="1.0" encoding="utf-8"?>
<!-- Generator: Adobe Illustrator 16.0.0, SVG Export Plug-In . SVG Version: 6.00 Build 0)  -->
<!DOCTYPE svg PUBLIC "-//W3C//DTD SVG 1.1//EN" "http://www.w3.org/Graphics/SVG/1.1/DTD/svg11.dtd">
<svg version="1.1" id="Calque_1" xmlns="http://www.w3.org/2000/svg" xmlns:xlink="http://www.w3.org/1999/xlink" x="0px" y="0px"
	 width="152.483px" height="152.484px" viewBox="0 0 152.483 152.484" enable-background="new 0 0 152.483 152.484"
	 xml:space="preserve">
<path fill="#30A9E1" d="M76.242,0C34.134,0,0,34.135,0,76.241c0,42.108,34.134,76.243,76.242,76.243s76.241-34.135,76.241-76.243
	C152.483,34.135,118.351,0,76.242,0z M115.627,59.046c0.036,0.795,0.054,1.593,0.054,2.397c0,24.488-18.639,52.726-52.725,52.726
	c-10.464,0-20.205-3.069-28.406-8.326c1.451,0.171,2.926,0.259,4.421,0.259c8.683,0,16.673-2.963,23.016-7.933
	c-8.11-0.149-14.954-5.509-17.312-12.868c1.132,0.217,2.293,0.331,3.486,0.331c1.69,0,3.328-0.227,4.883-0.65
	c-8.479-1.703-14.865-9.192-14.865-18.169c0-0.078,0-0.158,0.002-0.234c2.497,1.389,5.355,2.221,8.394,2.316
	c-4.973-3.322-8.244-8.995-8.244-15.421c0-3.399,0.914-6.579,2.508-9.318c9.142,11.211,22.796,18.589,38.196,19.363
	c-0.316-1.357-0.479-2.771-0.479-4.225c0-10.232,8.297-18.528,18.53-18.528c5.33,0,10.146,2.249,13.526,5.85
	c4.221-0.828,8.187-2.374,11.767-4.496c-1.383,4.327-4.321,7.959-8.147,10.253c3.749-0.447,7.32-1.445,10.644-2.921
	C122.39,53.171,119.248,56.433,115.627,59.046z"/>
</svg>
