<?xml version="1.0" encoding="utf-8"?>
<!-- Generator: Adobe Illustrator 16.0.0, SVG Export Plug-In . SVG Version: 6.00 Build 0)  -->
<!DOCTYPE svg PUBLIC "-//W3C//DTD SVG 1.1//EN" "http://www.w3.org/Graphics/SVG/1.1/DTD/svg11.dtd">
<svg version="1.1" id="Calque_1" xmlns="http://www.w3.org/2000/svg" xmlns:xlink="http://www.w3.org/1999/xlink" x="0px" y="0px"
	 width="152.483px" height="152.482px" viewBox="0 0 152.483 152.482" enable-background="new 0 0 152.483 152.482"
	 xml:space="preserve">
<g>
	<path fill="#CE1820" d="M76.242,0C34.134,0,0,34.135,0,76.24c0,42.107,34.134,76.242,76.242,76.242s76.241-34.135,76.241-76.242
		C152.483,34.135,118.351,0,76.242,0z M87.382,32.748h5.199v21.459c0,0.668,0.111,1.146,0.33,1.439
		c0.216,0.299,0.565,0.445,1.057,0.445c0.381,0,0.863-0.197,1.453-0.59c0.582-0.393,1.111-0.895,1.606-1.508V32.748h5.204v27.994
		h-5.204V57.65c-0.958,1.135-1.956,2.008-2.993,2.6c-1.041,0.596-2.045,0.893-3.023,0.893c-1.202,0-2.109-0.418-2.723-1.246
		c-0.607-0.836-0.906-2.084-0.906-3.75V32.748z M75.603,32.039c2.152,0,3.92,0.68,5.299,2.035c1.37,1.352,2.057,3.094,2.057,5.23
		v14.453c0,2.404-0.679,4.281-2.021,5.648c-1.352,1.359-3.209,2.043-5.569,2.043c-2.278,0-4.104-0.705-5.467-2.113
		c-1.366-1.406-2.046-3.299-2.046-5.674l-0.008-14.52c0-2.164,0.706-3.891,2.109-5.178C71.353,32.684,73.238,32.039,75.603,32.039z
		 M54.362,22.793l3.803,15.168h0.372l3.626-15.168h5.953l-6.822,22.203v15.746h-5.859V45.699l-6.979-22.906H54.362z
		 M120.558,112.877c0,6.754-5.547,12.236-12.388,12.236c-9.761,0.418-19.747,0.59-29.929,0.574
		c-10.184,0.016-20.176-0.156-29.936-0.574c-6.838,0-12.379-5.482-12.379-12.236c-0.412-5.367-0.594-10.715-0.576-16.072
		c-0.018-5.35,0.164-10.707,0.576-16.062c0-6.762,5.541-12.244,12.379-12.244c9.281-0.385,18.763-0.568,28.42-0.568
		c0.506,0,1.01,0,1.516,0c0.504,0,1.01,0,1.513,0c9.662,0,19.14,0.184,28.416,0.568c6.841,0,12.388,5.482,12.388,12.244
		c0.412,5.355,0.586,10.713,0.576,16.062C121.144,102.162,120.97,107.51,120.558,112.877z"/>
	<path fill="#CE1820" d="M75.351,36.895c-0.636,0-1.15,0.188-1.547,0.559c-0.396,0.375-0.597,0.869-0.597,1.482v15.248
		c0,0.77,0.185,1.365,0.558,1.787c0.373,0.414,0.898,0.627,1.586,0.627c0.704,0,1.266-0.217,1.686-0.645
		c0.412-0.428,0.617-1.018,0.617-1.77V38.936c0-0.613-0.217-1.107-0.641-1.482C76.593,37.082,76.035,36.895,75.351,36.895z"/>
	<path fill="#CE1820" d="M69.562,108.492c-0.482,0.613-1.016,1.115-1.605,1.504c-0.59,0.398-1.072,0.594-1.449,0.594
		c-0.487,0-0.841-0.148-1.057-0.447c-0.225-0.299-0.33-0.779-0.33-1.441V87.246h-5.203v23.396c0,1.666,0.298,2.916,0.914,3.75
		c0.613,0.832,1.517,1.246,2.719,1.246c0.974,0,1.982-0.297,3.023-0.889c1.033-0.596,2.031-1.461,2.988-2.605v3.096h5.205V87.246
		h-5.205V108.492z"/>
	<path fill="#CE1820" d="M93.505,88.684c-0.868-1.195-2.129-1.791-3.774-1.791c-0.81,0-1.606,0.219-2.396,0.668
		c-0.785,0.441-1.527,1.09-2.231,1.945V77.289h-5.255v37.951h5.255v-2.152c0.683,0.852,1.421,1.477,2.215,1.885
		c0.806,0.416,1.708,0.621,2.726,0.621c1.543,0,2.719-0.525,3.539-1.588c0.817-1.055,1.222-2.578,1.222-4.566V93.904
		C94.805,91.621,94.368,89.881,93.505,88.684z M89.448,108.672c0,0.896-0.15,1.541-0.452,1.936
		c-0.296,0.391-0.771,0.586-1.406,0.586c-0.44,0-0.856-0.102-1.253-0.305c-0.396-0.197-0.809-0.527-1.233-0.982V92.465
		c0.354-0.391,0.71-0.668,1.072-0.854c0.362-0.18,0.727-0.277,1.103-0.277c0.7,0,1.238,0.246,1.607,0.734
		c0.377,0.494,0.562,1.209,0.562,2.154V108.672z"/>
	<path fill="#CE1820" d="M114.041,101.895V94.77c0-2.658-0.636-4.693-1.916-6.107c-1.28-1.416-3.11-2.123-5.491-2.123
		c-2.328,0-4.226,0.76-5.698,2.293c-1.473,1.527-2.208,3.506-2.208,5.938v12.566c0,2.695,0.672,4.809,2.012,6.352
		c1.339,1.537,3.173,2.307,5.502,2.307c2.589,0,4.541-0.723,5.844-2.176c1.305-1.453,1.956-3.613,1.956-6.482v-2.104h-5.356v1.947
		c0,1.65-0.17,2.707-0.515,3.189c-0.342,0.48-0.95,0.723-1.815,0.723c-0.824,0-1.408-0.281-1.751-0.852
		c-0.35-0.57-0.515-1.59-0.515-3.061v-5.285H114.041z M104.089,94.717c0-1.172,0.181-2.012,0.543-2.52
		c0.356-0.506,0.95-0.76,1.778-0.76c0.802,0,1.368,0.254,1.732,0.76c0.361,0.508,0.542,1.348,0.542,2.52v2.834h-4.596V94.717z"/>
	<polygon fill="#CE1820" points="59.983,77.289 41.995,77.289 41.995,82.799 48.059,82.799 48.059,115.24 53.919,115.24 
		53.919,82.799 59.983,82.799 	"/>
</g>
</svg>
