<?xml version="1.0" encoding="utf-8"?>
<!-- Generator: Adobe Illustrator 16.0.0, SVG Export Plug-In . SVG Version: 6.00 Build 0)  -->
<!DOCTYPE svg PUBLIC "-//W3C//DTD SVG 1.1//EN" "http://www.w3.org/Graphics/SVG/1.1/DTD/svg11.dtd">
<svg version="1.1" id="Calque_1" xmlns="http://www.w3.org/2000/svg" xmlns:xlink="http://www.w3.org/1999/xlink" x="0px" y="0px"
	 width="152.484px" height="152.483px" viewBox="0 0 152.484 152.483" enable-background="new 0 0 152.484 152.483"
	 xml:space="preserve">
<path fill="#2F689C" d="M76.242,0C34.134,0,0,34.135,0,76.241c0,42.108,34.134,76.243,76.242,76.243
	c42.108,0,76.241-34.135,76.241-76.243C152.483,34.135,118.351,0,76.242,0z M96.568,46.286c-4.27,0-8.881,0-11.065,0
	c-2.191,0-4.403,2.271-4.403,3.955c0,1.684,0,11.283,0,11.283s13.671,0,15.446,0c-0.618,8.653-1.895,16.567-1.895,16.567H81.022
	v45.288H60.711V78.091h-9.889V61.587h9.889c0,0,0-11.026,0-13.496c0-2.467-0.502-18.987,20.812-18.987c2.858,0,9.343,0,15.045,0
	C96.568,36.275,96.568,44.038,96.568,46.286z"/>
</svg>
