<?xml version="1.0" encoding="utf-8"?>
<!-- Generator: Adobe Illustrator 16.0.0, SVG Export Plug-In . SVG Version: 6.00 Build 0)  -->
<!DOCTYPE svg PUBLIC "-//W3C//DTD SVG 1.1//EN" "http://www.w3.org/Graphics/SVG/1.1/DTD/svg11.dtd">
<svg version="1.1" id="Calque_1" xmlns="http://www.w3.org/2000/svg" xmlns:xlink="http://www.w3.org/1999/xlink" x="0px" y="0px"
	 width="152.484px" height="152.483px" viewBox="0 0 152.484 152.483" enable-background="new 0 0 152.484 152.483"
	 xml:space="preserve">
<path fill="#EE7226" d="M76.242,0C34.135,0,0,34.135,0,76.241c0,42.107,34.135,76.242,76.242,76.242s76.242-34.134,76.242-76.242
	C152.484,34.135,118.35,0,76.242,0z M58.448,108.95l-0.008,0.004c-1.861,1.855-4.407,2.988-7.237,2.988
	c-2.827,0-5.366-1.137-7.229-2.992c-1.855-1.855-3.002-4.383-3.002-7.195c0-2.818,1.146-5.355,3.002-7.215v0.002
	c1.863-1.855,4.402-2.998,7.229-2.998c2.83,0,5.372,1.143,7.237,2.998c1.865,1.865,3.004,4.395,3.009,7.213
	C61.444,104.565,60.306,107.095,58.448,108.95z M77.05,112.038v-0.029h-0.004c-0.016-9.639-3.773-18.738-10.572-25.525
	c-6.8-6.812-15.885-10.584-25.492-10.59V61.175c14.018,0.01,26.711,5.713,35.924,14.928c9.211,9.221,14.91,21.918,14.921,35.936
	H77.05z M103.288,112.038c-0.024-34.375-27.941-62.334-62.281-62.357V34.972c21.236,0.01,40.473,8.648,54.43,22.609
	c13.957,13.965,22.592,33.213,22.602,54.457H103.288z"/>
</svg>
